<svg id="e3936a29-7d07-4bc3-95b2-045e23ee6e74" data-name="matolayer" xmlns="http://www.w3.org/2000/svg" viewBox="0 0 270.26 362.2"><g id="a6e6adad-c09b-4491-82b5-9bf2d60add8f" data-name="kokomato"><g id="b8d1eaa8-50b3-47ee-8375-2d151dc8b621" data-name="mato"><path d="M170.13,430.35a45.55,45.55,0,0,1-45.5-45.5,45,45,0,0,1,9.86-28.29L236.72,196.2,165.21,203a43.21,43.21,0,0,1-4.4.22,45.5,45.5,0,0,1-4.29-90.8L324.75,96.33c1.46-.14,2.94-.21,4.39-.21a45.51,45.51,0,0,1,38.13,70.26L279,339.35h60.14a45.5,45.5,0,0,1,0,91Z" transform="translate(-114.87 -68.65)" style="fill:#f1b9b9"/><path d="M329.14,96.62a45,45,0,0,1,37.71,69.49l0,0,0,0L278.91,338.4l-.74,1.45h61a45,45,0,0,1,0,90h-169a45,45,0,0,1-45-45,44.55,44.55,0,0,1,9.75-28l0,0,0,0L236.6,197.33l1.1-1.73-2,.2-70.49,6.75c-1.45.14-2.92.21-4.36.21a45,45,0,0,1-4.24-89.8L324.8,96.83c1.44-.14,2.9-.21,4.34-.21m0-1q-2.2,0-4.44.21L156.47,112a46,46,0,0,0,4.34,91.8,44.49,44.49,0,0,0,4.45-.22l70.49-6.75L134.1,356.25a46,46,0,0,0,36,74.6h169a46,46,0,0,0,0-92H279.8l87.89-172.2a46,46,0,0,0-38.55-71Z" transform="translate(-114.87 -68.65)"/></g><g id="a8763c55-66c3-4809-9e27-35744da16e4e" data-name="silmamuna2"><circle cx="30.9" cy="83.53" r="12.5" style="fill:#fff"/><path d="M145.77,140.17a12,12,0,1,1-12,12,12,12,0,0,1,12-12m0-1a13,13,0,1,0,13,13,13,13,0,0,0-13-13Z" transform="translate(-114.87 -68.65)"/></g><g id="ff23d3c4-c3b9-43b2-8cd9-8814ff025f68" data-name="silma"><path d="M142.07,161.68a6.13,6.13,0,0,1-2.1-11.9,6,6,0,0,1,2.09-.37,6.13,6.13,0,0,1,2.1,11.89A6,6,0,0,1,142.07,161.68Z" transform="translate(-114.87 -68.65)"/><path d="M142.07,149.91h0a5.66,5.66,0,0,1,5.29,3.7,5.6,5.6,0,0,1-.19,4.31,5.69,5.69,0,0,1-5.1,3.26,5.64,5.64,0,0,1-5.11-8,5.58,5.58,0,0,1,3.18-2.91,5.53,5.53,0,0,1,1.93-.34m0-1a6.64,6.64,0,0,0,0,13.27,6.49,6.49,0,0,0,2.27-.41,6.63,6.63,0,0,0-2.28-12.86Z" transform="translate(-114.87 -68.65)"/></g><g id="a9e44150-2909-4080-b827-9d40dc5b5036" data-name="silmamuna"><circle cx="61.47" cy="89.62" r="12.5" style="fill:#fff"/><path d="M176.34,146.27a12,12,0,1,1-12,12,12,12,0,0,1,12-12m0-1a13,13,0,1,0,13,13,13,13,0,0,0-13-13Z" transform="translate(-114.87 -68.65)"/></g><g id="ae1424a6-6536-4154-ab40-f38c15ebd218" data-name="silma1"><path d="M172.63,167.77a6.13,6.13,0,0,1-2.09-11.9,6,6,0,0,1,2.09-.37,6.12,6.12,0,0,1,5.56,8.72,6.08,6.08,0,0,1-3.46,3.18A6.28,6.28,0,0,1,172.63,167.77Z" transform="translate(-114.87 -68.65)"/><path d="M172.63,156h0a5.66,5.66,0,0,1,5.3,3.71,5.64,5.64,0,0,1-3.37,7.22,5.77,5.77,0,0,1-1.93.34,5.64,5.64,0,0,1-5.1-8,5.59,5.59,0,0,1,3.18-2.91,5.51,5.51,0,0,1,1.92-.34m0-1a6.71,6.71,0,0,0-2.27.4,6.64,6.64,0,1,0,2.27-.4Z" transform="translate(-114.87 -68.65)"/></g><g id="aea9d01a-37f9-4693-af42-0ecfa76e387c" data-name="suu"><path d="M130.65,173.74c5.65,8.49,21.12,26.76,49.43,10.57" transform="translate(-114.87 -68.65)" style="fill:none;stroke:#000;stroke-miterlimit:10"/></g><path id="f8591ca9-d798-4cf2-9f29-6a41e2da798e" data-name="pipo" d="M223.56,131.44l-8.74,24.48-93.24-33.27,8.74-24.49,7.1,2.54a30.27,30.27,0,0,1,1.74-9.47c6.59-18.47,29.86-27,52-19.15s34.69,29.25,28.1,47.72a30.21,30.21,0,0,1-4.65,8.43Z" transform="translate(-114.87 -68.65)" style="fill:#8a004d;stroke:#000;stroke-miterlimit:10;fill-rule:evenodd"/></g></svg>